<?xml version="1.0" standalone="no"?><!DOCTYPE svg PUBLIC "-//W3C//DTD SVG 1.1//EN" "http://www.w3.org/Graphics/SVG/1.1/DTD/svg11.dtd"><svg t="1587143106338" class="icon" viewBox="0 0 1024 1024" version="1.1" xmlns="http://www.w3.org/2000/svg" p-id="741" width="128" height="128" xmlns:xlink="http://www.w3.org/1999/xlink"><defs><style type="text/css"></style></defs><path d="M975.658667 143.957333a42.666667 42.666667 0 0 0-36.949334-21.418666l-212.053333-0.170667h-155.818667a42.752 42.752 0 0 0-34.858666 18.133333l-23.850667 33.962667-24.064-34.048a42.581333 42.581333 0 0 0-34.816-18.048H297.301333l-212.181333 1.109333A42.666667 42.666667 0 0 0 48.512 187.733333l427.52 729.856a42.666667 42.666667 0 0 0 36.821333 21.077334 42.666667 42.666667 0 0 0 36.864-21.162667l425.813334-730.794667a42.752 42.752 0 0 0 0.128-42.752zM431.146667 207.701333l46.293333 65.408a42.624 42.624 0 0 0 34.816 18.048h0.042667a42.794667 42.794667 0 0 0 34.858666-18.133333L593.066667 207.786667l58.154666-0.085334-138.410666 232.704-139.733334-232.704z m81.578666 603.733334L159.573333 208.426667l113.92-0.64 202.837334 337.834666a42.666667 42.666667 0 0 0 36.565333 20.693334h0.256a42.666667 42.666667 0 0 0 36.565333-20.864l200.874667-337.749334 113.92 0.128z" p-id="742"></path></svg>